<svg width="39" height="51" viewBox="0 0 39 51" fill="none" xmlns="http://www.w3.org/2000/svg">
<path d="M7.55801 47H5.05301L4.76801 45.53H2.99801L2.71301 47H0.328008L2.03801 37.685H5.84801L7.55801 47ZM4.48301 43.775L3.95801 40.445H3.85301L3.32801 43.775H4.48301ZM10.6337 40.34C11.1837 39.87 11.7887 39.635 12.4487 39.635C13.1087 39.635 13.5687 39.79 13.8287 40.1C14.0987 40.4 14.2337 40.855 14.2337 41.465V47H11.6837V42.32C11.6837 42.07 11.5737 41.945 11.3537 41.945C11.0737 41.945 10.8387 42.015 10.6487 42.155V47H8.12871V39.815H10.4237L10.5737 40.34H10.6337ZM17.6657 47H15.1907V39.89H17.6657V47ZM15.3857 39.32C15.1757 39.14 15.0707 38.85 15.0707 38.45C15.0707 38.05 15.1757 37.755 15.3857 37.565C15.5957 37.375 15.9407 37.28 16.4207 37.28C16.9007 37.28 17.2457 37.375 17.4557 37.565C17.6657 37.755 17.7707 38.05 17.7707 38.45C17.7707 38.84 17.6657 39.13 17.4557 39.32C17.2457 39.5 16.9007 39.59 16.4207 39.59C15.9407 39.59 15.5957 39.5 15.3857 39.32ZM24.707 40.34C25.257 39.87 25.862 39.635 26.522 39.635C27.182 39.635 27.642 39.79 27.902 40.1C28.172 40.4 28.307 40.855 28.307 41.465V47H25.757V42.32C25.757 42.07 25.647 41.945 25.427 41.945C25.147 41.945 24.912 42.015 24.722 42.155V47H22.172V42.32C22.172 42.07 22.062 41.945 21.842 41.945C21.562 41.945 21.327 42.015 21.137 42.155V47H18.617V39.815H20.912L21.062 40.34H21.122C21.672 39.87 22.322 39.635 23.072 39.635C23.832 39.635 24.327 39.915 24.557 40.475L24.707 40.34ZM34.6228 41.69L34.5478 44.795C34.5478 44.985 34.5928 45.115 34.6828 45.185C34.7828 45.245 34.9478 45.275 35.1778 45.275L34.9528 47.09C34.3728 47.13 34.0528 47.15 33.9928 47.15C33.2528 47.15 32.7828 46.895 32.5828 46.385H32.5078C32.1378 46.895 31.5678 47.15 30.7978 47.15C30.2078 47.15 29.7528 46.96 29.4328 46.58C29.1228 46.2 28.9678 45.68 28.9678 45.02C28.9678 44.19 29.2228 43.615 29.7328 43.295C30.2528 42.975 31.0678 42.765 32.1778 42.665V42.305C32.1778 42.025 32.0378 41.885 31.7578 41.885C31.2778 41.885 30.5278 42.03 29.5078 42.32L29.1328 40.13C30.4128 39.8 31.4778 39.635 32.3278 39.635C33.1778 39.635 33.7728 39.8 34.1128 40.13C34.4528 40.46 34.6228 40.98 34.6228 41.69ZM31.7278 45.395C32.0978 45.395 32.2828 45.2 32.2828 44.81V44.075C31.9128 44.125 31.6478 44.205 31.4878 44.315C31.3378 44.415 31.2628 44.59 31.2628 44.84C31.2628 45.21 31.4178 45.395 31.7278 45.395ZM35.741 45.35V37.385H38.216V44.555C38.216 44.725 38.251 44.845 38.321 44.915C38.401 44.985 38.536 45.02 38.726 45.02L38.531 47.15H37.706C37.046 47.15 36.551 47.015 36.221 46.745C35.901 46.465 35.741 46 35.741 45.35Z" fill="black" fill-opacity="0.7"/>
<path d="M35 7.99996H32.3333L30.64 6.30663C30.0276 5.69359 29.1998 5.34429 28.3333 5.33329H25C24.8132 4.58502 24.3859 3.91879 23.7837 3.43701C23.1815 2.95524 22.4377 2.68457 21.6667 2.66663V11.1466C21.7352 12.4932 22.2675 13.7746 23.1733 14.7733C24.6647 16.207 26.6155 17.0667 28.68 17.2L33.28 15.36C33.8197 15.1433 34.3057 14.8116 34.7041 14.3879C35.1024 13.9641 35.4036 13.4587 35.5867 12.9066L36.3333 10.8666C36.3536 10.7296 36.3536 10.5903 36.3333 10.4533V9.33329C36.3333 8.97967 36.1928 8.64053 35.9428 8.39048C35.6928 8.14044 35.3536 7.99996 35 7.99996ZM28.3333 10.6666C28.0696 10.6666 27.8118 10.5884 27.5926 10.4419C27.3733 10.2954 27.2024 10.0872 27.1015 9.84354C27.0006 9.5999 26.9742 9.33181 27.0256 9.07317C27.0771 8.81453 27.204 8.57695 27.3905 8.39048C27.577 8.20401 27.8146 8.07703 28.0732 8.02558C28.3318 7.97413 28.5999 8.00054 28.8436 8.10145C29.0872 8.20237 29.2954 8.37327 29.442 8.59253C29.5885 8.8118 29.6667 9.06958 29.6667 9.33329C29.6667 9.68691 29.5262 10.0261 29.2761 10.2761C29.0261 10.5262 28.6869 10.6666 28.3333 10.6666Z" fill="black" fill-opacity="0.7"/>
<path d="M22.1733 15.6533C21.2432 14.6347 20.6355 13.3635 20.4267 12H15C14.6437 12.0236 14.2865 11.9707 13.9523 11.8451C13.618 11.7194 13.3145 11.5238 13.062 11.2713C12.8096 11.0188 12.6139 10.7153 12.4882 10.3811C12.3626 10.0468 12.3098 9.68962 12.3333 9.33333C12.3333 8.97971 12.1928 8.64057 11.9428 8.39052C11.6928 8.14048 11.3536 8 11 8C10.6464 8 10.3072 8.14048 10.0572 8.39052C9.80713 8.64057 9.66666 8.97971 9.66666 9.33333C9.68005 10.2586 9.89864 11.1694 10.3067 12C10.7565 12.8722 11.4641 13.5845 12.3333 14.04V29.3333H16.3333V22.6667H24.3333V29.3333H28.3333V18.4933C26.0074 18.3101 23.8231 17.3031 22.1733 15.6533Z" fill="black" fill-opacity="0.7"/>
</svg>
