<svg width="94" height="83" viewBox="0 0 94 83" fill="none" xmlns="http://www.w3.org/2000/svg">
<g clip-path="url(#clip0_299_650)">
<path d="M73.9167 27.1667H66.3611V32.7501C66.3611 33.2877 66.2536 33.8202 66.0448 34.3169C65.836 34.8137 65.5299 35.2651 65.144 35.6453C64.7581 36.0255 64.3 36.3271 63.7958 36.5328C63.2916 36.7386 62.7513 36.8445 62.2056 36.8445C61.6598 36.8445 61.1195 36.7386 60.6153 36.5328C60.1111 36.3271 59.653 36.0255 59.2671 35.6453C58.8813 35.2651 58.5752 34.8137 58.3663 34.3169C58.1575 33.8202 58.05 33.2877 58.05 32.7501V27.1667H36.0444V32.7501C36.0444 33.836 35.6066 34.8774 34.8273 35.6453C34.048 36.4131 32.991 36.8445 31.8889 36.8445C30.7868 36.8445 29.7298 36.4131 28.9505 35.6453C28.1712 34.8774 27.7333 33.836 27.7333 32.7501V27.1667H20.1778C19.7283 27.1617 19.2823 27.2455 18.8662 27.4132C18.4502 27.581 18.0725 27.8292 17.7555 28.1433C17.4385 28.4574 17.1886 28.8309 17.0207 29.2417C16.8528 29.6526 16.7702 30.0925 16.7778 30.5353V72.187C16.7703 72.6221 16.8498 73.0543 17.0119 73.4591C17.174 73.8638 17.4154 74.2332 17.7223 74.546C18.0293 74.8588 18.3958 75.109 18.8009 75.2822C19.206 75.4554 19.6418 75.5483 20.0833 75.5556H73.9167C74.3582 75.5483 74.794 75.4554 75.1991 75.2822C75.6042 75.109 75.9707 74.8588 76.2777 74.546C76.5846 74.2332 76.826 73.8638 76.9881 73.4591C77.1502 73.0543 77.2297 72.6221 77.2222 72.187V30.5353C77.2297 30.1003 77.1502 29.668 76.9881 29.2633C76.826 28.8585 76.5846 28.4892 76.2777 28.1764C75.9707 27.8635 75.6042 27.6134 75.1991 27.4401C74.794 27.2669 74.3582 27.174 73.9167 27.1667ZM31.8889 64.3889H28.1111V60.6667H31.8889V64.3889ZM31.8889 55.0834H28.1111V51.3612H31.8889V55.0834ZM31.8889 45.7778H28.1111V42.0556H31.8889V45.7778ZM43.2222 64.3889H39.4444V60.6667H43.2222V64.3889ZM43.2222 55.0834H39.4444V51.3612H43.2222V55.0834ZM43.2222 45.7778H39.4444V42.0556H43.2222V45.7778ZM54.5556 64.3889H50.7778V60.6667H54.5556V64.3889ZM54.5556 55.0834H50.7778V51.3612H54.5556V55.0834ZM54.5556 45.7778H50.7778V42.0556H54.5556V45.7778ZM65.8889 64.3889H62.1111V60.6667H65.8889V64.3889ZM65.8889 55.0834H62.1111V51.3612H65.8889V55.0834ZM65.8889 45.7778H62.1111V42.0556H65.8889V45.7778Z" fill="black"/>
<path d="M31.8889 34.6111C32.3899 34.6111 32.8703 34.415 33.2245 34.066C33.5788 33.7169 33.7778 33.2435 33.7778 32.7499V21.5833C33.7778 21.0897 33.5788 20.6163 33.2245 20.2673C32.8703 19.9182 32.3899 19.7222 31.8889 19.7222C31.3879 19.7222 30.9075 19.9182 30.5532 20.2673C30.199 20.6163 30 21.0897 30 21.5833V32.7499C30 33.2435 30.199 33.7169 30.5532 34.066C30.9075 34.415 31.3879 34.6111 31.8889 34.6111Z" fill="black"/>
<path d="M62.1111 34.6111C62.6121 34.6111 63.0925 34.415 63.4468 34.066C63.801 33.7169 64 33.2435 64 32.7499V21.5833C64 21.0897 63.801 20.6163 63.4468 20.2673C63.0925 19.9182 62.6121 19.7222 62.1111 19.7222C61.6101 19.7222 61.1297 19.9182 60.7755 20.2673C60.4212 20.6163 60.2222 21.0897 60.2222 21.5833V32.7499C60.2222 33.2435 60.4212 33.7169 60.7755 34.066C61.1297 34.415 61.6101 34.6111 62.1111 34.6111Z" fill="black"/>
</g>
<path d="M10.3432 6.58954C10.3432 11.3819 8.43279 13.7781 4.61192 13.7781H0V0H4.70147C6.74624 0 8.19399 0.569467 9.04473 1.7084C9.9104 2.83254 10.3432 4.45959 10.3432 6.58954ZM4.54475 10.5832C5.33579 10.5832 5.84325 10.3096 6.06713 9.76228C6.30594 9.20021 6.42534 8.26836 6.42534 6.96672C6.42534 5.65029 6.29848 4.71844 6.04475 4.17116C5.80594 3.62388 5.28356 3.35024 4.47759 3.35024H3.80595V10.5832H4.54475Z" fill="black"/>
<path d="M19.5529 5.92393L19.441 10.5166C19.441 10.7977 19.5081 10.99 19.6425 11.0935C19.7917 11.1823 20.038 11.2266 20.3813 11.2266L20.0454 13.9113C19.1798 13.9704 18.7022 14 18.6126 14C17.5081 14 16.8066 13.6228 16.5081 12.8685H16.3962C15.844 13.6228 14.9932 14 13.844 14C12.9634 14 12.2843 13.719 11.8067 13.1569C11.344 12.5948 11.1126 11.8257 11.1126 10.8494C11.1126 9.62176 11.4932 8.77126 12.2544 8.29794C13.0305 7.82462 14.247 7.514 15.9037 7.36609V6.8336C15.9037 6.41944 15.6947 6.21236 15.2768 6.21236C14.5604 6.21236 13.441 6.42684 11.9186 6.85579L11.3589 3.61648C13.2693 3.12837 14.8589 2.88431 16.1275 2.88431C17.3962 2.88431 18.2842 3.12837 18.7917 3.61648C19.2992 4.1046 19.5529 4.87375 19.5529 5.92393ZM15.232 11.4041C15.7843 11.4041 16.0604 11.1157 16.0604 10.5388V9.45166C15.5081 9.52562 15.1126 9.64395 14.8738 9.80666C14.6499 9.95457 14.538 10.2134 14.538 10.5832C14.538 11.1305 14.7693 11.4041 15.232 11.4041Z" fill="black"/>
<path d="M27.2666 13.8003C26.1621 13.9334 25.1994 14 24.3786 14C23.5726 14 22.9383 13.7929 22.4756 13.3788C22.0278 12.9498 21.8039 12.2176 21.8039 11.1822V6.03487H20.7293V3.28368H21.983L22.1845 1.24247H25.5651V3.28368H27.5576L27.4009 6.03487H25.5427V10.4501C25.5427 10.7607 25.692 10.916 25.9905 10.916C26.0203 10.916 26.483 10.8938 27.3785 10.8494L27.2666 13.8003Z" fill="black"/>
<path d="M32.805 6.05705C32.4169 6.05705 32.1632 6.19017 32.0438 6.45642C31.9244 6.70787 31.8647 7.09984 31.8647 7.63233H33.8124V7.09984C33.8124 6.40465 33.4766 6.05705 32.805 6.05705ZM32.8945 2.88431C34.4318 2.88431 35.5289 3.25409 36.1856 3.99366C36.8572 4.71844 37.193 5.76123 37.193 7.12203C37.193 7.29952 37.1408 8.09826 37.0363 9.51823H31.9319C31.9319 10.6276 32.4468 11.1822 33.4766 11.1822C33.9692 11.1822 34.9318 11.0122 36.3647 10.6719L36.6781 13.4231C35.4244 13.8077 34.1707 14 32.9169 14C31.3796 14 30.2005 13.5045 29.3796 12.5135C28.5587 11.5077 28.1483 10.1469 28.1483 8.43106C28.1483 4.73323 29.7304 2.88431 32.8945 2.88431Z" fill="black"/>
<path d="M46.6484 7.80983V13.7781H42.932V3.15055H46.2007L46.4246 3.79398H46.5141C46.8574 3.4094 47.2007 3.16535 47.544 3.06181C47.9022 2.94348 48.4768 2.88431 49.2678 2.88431L49.1111 6.43423H48.0813C47.4992 6.43423 47.1111 6.52298 46.9171 6.70048C46.738 6.87797 46.6484 7.24776 46.6484 7.80983Z" fill="black"/>
<path d="M54.4277 6.05705C54.0397 6.05705 53.7859 6.19017 53.6665 6.45642C53.5471 6.70787 53.4874 7.09984 53.4874 7.63233H55.4352V7.09984C55.4352 6.40465 55.0994 6.05705 54.4277 6.05705ZM54.5173 2.88431C56.0546 2.88431 57.1516 3.25409 57.8083 3.99366C58.4799 4.71844 58.8158 5.76123 58.8158 7.12203C58.8158 7.29952 58.7635 8.09826 58.659 9.51823H53.5546C53.5546 10.6276 54.0695 11.1822 55.0994 11.1822C55.5919 11.1822 56.5546 11.0122 57.9874 10.6719L58.3008 13.4231C57.0471 13.8077 55.7934 14 54.5397 14C53.0024 14 51.8233 13.5045 51.0024 12.5135C50.1815 11.5077 49.771 10.1469 49.771 8.43106C49.771 4.73323 51.3531 2.88431 54.5173 2.88431Z" fill="black"/>
<path d="M65.8989 13.8003C64.7945 13.9334 63.8318 14 63.0109 14C62.2049 14 61.5706 13.7929 61.1079 13.3788C60.6601 12.9498 60.4363 12.2176 60.4363 11.1822V6.03487H59.3616V3.28368H60.6154L60.8169 1.24247H64.1974V3.28368H66.19L66.0333 6.03487H64.1751V10.4501C64.1751 10.7607 64.3243 10.916 64.6228 10.916C64.6527 10.916 65.1153 10.8938 66.0109 10.8494L65.8989 13.8003Z" fill="black"/>
<path d="M66.7806 8.43106C66.7806 6.47861 67.1538 5.06603 67.9 4.19334C68.6612 3.32066 69.8403 2.88431 71.4373 2.88431C73.0492 2.88431 74.2209 3.31326 74.9522 4.17116C75.6836 5.02905 76.0492 6.44163 76.0492 8.40887C76.0492 10.3613 75.691 11.7813 74.9746 12.6688C74.2582 13.5563 73.0866 14 71.4597 14C69.8328 14 68.6463 13.5563 67.9 12.6688C67.1538 11.7813 66.7806 10.3687 66.7806 8.43106ZM72.1537 6.3233C72.0642 6.02747 71.8254 5.87956 71.4373 5.87956C71.0493 5.87956 70.803 6.02747 70.6985 6.3233C70.594 6.61912 70.5418 7.24036 70.5418 8.187V8.71949C70.5418 9.76968 70.594 10.4501 70.6985 10.7607C70.803 11.0713 71.0418 11.2266 71.4149 11.2266C71.803 11.2266 72.0493 11.0713 72.1537 10.7607C72.2582 10.4501 72.3104 9.81405 72.3104 8.85262V8.20919C72.3104 7.24776 72.2582 6.61912 72.1537 6.3233Z" fill="black"/>
<path d="M79.8777 14C78.1016 14 77.2136 13.0238 77.2136 11.0713V3.15055H81.0195V10.1616C81.0195 10.5314 81.1837 10.7163 81.5121 10.7163C81.93 10.7163 82.2807 10.6128 82.5643 10.4057V3.15055H86.3255V13.7338H82.7658V12.9572H82.6762C81.8553 13.6524 80.9225 14 79.8777 14Z" fill="black"/>
<path d="M91.3806 7.80983V13.7781H87.6642V3.15055H90.9328L91.1567 3.79398H91.2463C91.5896 3.4094 91.9328 3.16535 92.2761 3.06181C92.6343 2.94348 93.209 2.88431 94 2.88431L93.8433 6.43423H92.8134C92.2313 6.43423 91.8433 6.52298 91.6493 6.70048C91.4702 6.87797 91.3806 7.24776 91.3806 7.80983Z" fill="black"/>
<defs>
<clipPath id="clip0_299_650">
<rect width="68" height="67" fill="white" transform="translate(13 16)"/>
</clipPath>
</defs>
</svg>
