<svg width="57" height="64" viewBox="0 0 57 64" fill="none" xmlns="http://www.w3.org/2000/svg">
<path d="M14.9215 63.0139H11.1535V55.2379H10.9375L9.52152 63.0139H5.65752L4.31352 55.2379H4.07352V63.0139H0.353516L0.857516 48.1099H6.25752L7.60152 56.1739H7.79352L9.08952 48.1099H14.4175L14.9215 63.0139Z" fill="black"/>
<path d="M21.2003 63.0139H17.1203V48.1099H21.2003V63.0139Z" fill="black"/>
<path d="M34.072 63.0139H29.392L28.384 58.2619H28.192L27.064 63.0139H22.648L24.976 55.2859L22.84 48.1099H27.688L28.504 52.5259H28.696L29.584 48.1099H33.808L31.864 55.2859L34.072 63.0139Z" fill="black"/>
<path d="M43.3428 63.0139H35.2788V48.1099H43.5828L43.3428 51.7819H39.3828V54.0139H42.8148V57.1819H39.3828V59.6539H43.5828L43.3428 63.0139Z" fill="black"/>
<path d="M56.0699 55.2379C56.0699 60.4219 54.0219 63.0139 49.9259 63.0139H44.9819V48.1099H50.0219C52.2139 48.1099 53.7659 48.7259 54.6779 49.9579C55.6059 51.1739 56.0699 52.9339 56.0699 55.2379ZM49.8539 59.5579C50.7019 59.5579 51.2459 59.2619 51.4859 58.6699C51.7419 58.0619 51.8699 57.0539 51.8699 55.6459C51.8699 54.2219 51.7339 53.2139 51.4619 52.6219C51.2059 52.0299 50.6459 51.7339 49.7819 51.7339H49.0619V59.5579H49.8539Z" fill="black"/>
<path d="M30.0787 14.0843C31.6087 13.5447 32.8328 12.3216 33.3728 10.7926H39.079L33.6788 23.3839C33.6788 26.3698 36.5049 28.7801 39.979 28.7801C43.4531 28.7801 46.2792 26.3698 46.2792 23.3839L40.879 10.7926H44.4791V7.19515H33.3728C32.6348 5.09062 30.6367 3.59766 28.2786 3.59766C25.9206 3.59766 23.9225 5.09062 23.1845 7.19515H12.0781V10.7926H15.6782L10.2781 23.3839C10.2781 26.3698 13.1042 28.7801 16.5783 28.7801C20.0524 28.7801 22.8785 26.3698 22.8785 23.3839L17.4783 10.7926H23.1845C23.7245 12.3216 24.9485 13.5447 26.4786 14.0843V34.1763H10.2781V37.7738H46.2792V34.1763H30.0787V14.0843ZM43.3451 23.3839H36.6129L39.979 15.5413L43.3451 23.3839ZM19.9444 23.3839H13.2122L16.5783 15.5413L19.9444 23.3839ZM28.2786 10.7926C27.2886 10.7926 26.4786 9.98321 26.4786 8.9939C26.4786 8.00459 27.2886 7.19515 28.2786 7.19515C29.2687 7.19515 30.0787 8.00459 30.0787 8.9939C30.0787 9.98321 29.2687 10.7926 28.2786 10.7926Z" fill="black"/>
</svg>
