<svg width="77" height="81" viewBox="0 0 77 81" fill="none" xmlns="http://www.w3.org/2000/svg">
<g clip-path="url(#clip0_299_657)">
<path d="M65.2292 26.8333H58.0069V32.25C58.0069 32.7716 57.9042 33.2882 57.7046 33.7701C57.505 34.252 57.2124 34.6899 56.8435 35.0588C56.4747 35.4276 56.0368 35.7202 55.5548 35.9199C55.0729 36.1195 54.5564 36.2222 54.0347 36.2222C53.5131 36.2222 52.9965 36.1195 52.5146 35.9199C52.0327 35.7202 51.5948 35.4276 51.2259 35.0588C50.8571 34.6899 50.5645 34.252 50.3649 33.7701C50.1652 33.2882 50.0625 32.7716 50.0625 32.25V26.8333H29.0278V32.25C29.0278 33.3035 28.6093 34.3139 27.8643 35.0588C27.1194 35.8037 26.1091 36.2222 25.0556 36.2222C24.0021 36.2222 22.9917 35.8037 22.2468 35.0588C21.5018 34.3139 21.0833 33.3035 21.0833 32.25V26.8333H13.8611C13.4314 26.8284 13.0051 26.9098 12.6074 27.0725C12.2097 27.2352 11.8487 27.4761 11.5457 27.7808C11.2427 28.0854 11.0039 28.4478 10.8433 28.8464C10.6828 29.245 10.6038 29.6717 10.6111 30.1014V70.5097C10.6039 70.9318 10.68 71.3511 10.8349 71.7438C10.9898 72.1365 11.2206 72.4948 11.514 72.7983C11.8074 73.1018 12.1577 73.3445 12.545 73.5125C12.9322 73.6806 13.3488 73.7707 13.7708 73.7778H65.2292C65.6512 73.7707 66.0678 73.6806 66.455 73.5125C66.8422 73.3445 67.1926 73.1018 67.486 72.7983C67.7794 72.4948 68.0102 72.1365 68.1651 71.7438C68.32 71.3511 68.3961 70.9318 68.3889 70.5097V30.1014C68.3961 29.6793 68.32 29.26 68.1651 28.8673C68.0102 28.4746 67.7794 28.1163 67.486 27.8128C67.1926 27.5094 66.8422 27.2667 66.455 27.0986C66.0678 26.9305 65.6512 26.8404 65.2292 26.8333ZM25.0556 62.9444H21.4444V59.3333H25.0556V62.9444ZM25.0556 53.9167H21.4444V50.3056H25.0556V53.9167ZM25.0556 44.8889H21.4444V41.2778H25.0556V44.8889ZM35.8889 62.9444H32.2778V59.3333H35.8889V62.9444ZM35.8889 53.9167H32.2778V50.3056H35.8889V53.9167ZM35.8889 44.8889H32.2778V41.2778H35.8889V44.8889ZM46.7222 62.9444H43.1111V59.3333H46.7222V62.9444ZM46.7222 53.9167H43.1111V50.3056H46.7222V53.9167ZM46.7222 44.8889H43.1111V41.2778H46.7222V44.8889ZM57.5556 62.9444H53.9444V59.3333H57.5556V62.9444ZM57.5556 53.9167H53.9444V50.3056H57.5556V53.9167ZM57.5556 44.8889H53.9444V41.2778H57.5556V44.8889Z" fill="black"/>
<path d="M25.0556 34.0555C25.5344 34.0555 25.9937 33.8653 26.3323 33.5267C26.6709 33.1881 26.8611 32.7288 26.8611 32.25V21.4166C26.8611 20.9378 26.6709 20.4785 26.3323 20.1399C25.9937 19.8013 25.5344 19.6111 25.0556 19.6111C24.5767 19.6111 24.1174 19.8013 23.7788 20.1399C23.4402 20.4785 23.25 20.9378 23.25 21.4166V32.25C23.25 32.7288 23.4402 33.1881 23.7788 33.5267C24.1174 33.8653 24.5767 34.0555 25.0556 34.0555Z" fill="black"/>
<path d="M53.9444 34.0555C54.4233 34.0555 54.8826 33.8653 55.2212 33.5267C55.5598 33.1881 55.75 32.7288 55.75 32.25V21.4166C55.75 20.9378 55.5598 20.4785 55.2212 20.1399C54.8826 19.8013 54.4233 19.6111 53.9444 19.6111C53.4656 19.6111 53.0063 19.8013 52.6677 20.1399C52.3291 20.4785 52.1389 20.9378 52.1389 21.4166V32.25C52.1389 32.7288 52.3291 33.1881 52.6677 33.5267C53.0063 33.8653 53.4656 34.0555 53.9444 34.0555Z" fill="black"/>
</g>
<path d="M10.0339 6.8172C10.0339 11.4624 8.18063 13.7849 4.47401 13.7849H0V0.430107H4.56088C6.5445 0.430107 7.94897 0.982079 8.77427 2.08602C9.61405 3.17563 10.0339 4.75269 10.0339 6.8172ZM4.40885 10.6882C5.17624 10.6882 5.66852 10.4229 5.88571 9.89247C6.11737 9.34767 6.2332 8.44444 6.2332 7.1828C6.2332 5.90681 6.11013 5.00358 5.86399 4.47312C5.63233 3.94265 5.12556 3.67742 4.3437 3.67742H3.69214V10.6882H4.40885Z" fill="black"/>
<path d="M18.9682 6.17204L18.8596 10.6237C18.8596 10.8961 18.9248 11.0824 19.0551 11.1828C19.1999 11.2688 19.4388 11.3118 19.7718 11.3118L19.446 13.914C18.6062 13.9713 18.1429 14 18.056 14C16.9846 14 16.3041 13.6344 16.0145 12.9032H15.9059C15.3702 13.6344 14.5449 14 13.43 14C12.5757 14 11.9169 13.7276 11.4536 13.1828C11.0048 12.638 10.7803 11.8925 10.7803 10.9462C10.7803 9.75627 11.1496 8.9319 11.888 8.47312C12.6409 8.01434 13.8209 7.71326 15.4281 7.56989V7.05376C15.4281 6.65233 15.2254 6.45161 14.82 6.45161C14.125 6.45161 13.0391 6.6595 11.5622 7.07527L11.0192 3.93548C12.8726 3.46237 14.4146 3.22581 15.6453 3.22581C16.876 3.22581 17.7375 3.46237 18.2298 3.93548C18.7221 4.4086 18.9682 5.15412 18.9682 6.17204ZM14.7765 11.4839C15.3123 11.4839 15.5801 11.2043 15.5801 10.6452V9.5914C15.0444 9.66308 14.6607 9.77778 14.429 9.93548C14.2119 10.0789 14.1033 10.3297 14.1033 10.6882C14.1033 11.2186 14.3277 11.4839 14.7765 11.4839Z" fill="black"/>
<path d="M26.4512 13.8065C25.3798 13.9355 24.4459 14 23.6496 14C22.8677 14 22.2523 13.7993 21.8035 13.3978C21.3691 12.9821 21.1519 12.2724 21.1519 11.2688V6.27957H20.1094V3.6129H21.3257L21.5211 1.63441H24.8006V3.6129H26.7336L26.5816 6.27957H24.7789V10.5591C24.7789 10.8602 24.9237 11.0108 25.2133 11.0108C25.2423 11.0108 25.6911 10.9892 26.5598 10.9462L26.4512 13.8065Z" fill="black"/>
<path d="M31.824 6.30108C31.4476 6.30108 31.2014 6.43011 31.0856 6.68817C30.9698 6.9319 30.9118 7.31183 30.9118 7.82796H32.8014V7.31183C32.8014 6.63799 32.4756 6.30108 31.824 6.30108ZM31.9109 3.22581C33.4022 3.22581 34.4664 3.58423 35.1035 4.30108C35.7551 5.00358 36.0808 6.01434 36.0808 7.33333C36.0808 7.50538 36.0302 8.27957 35.9288 9.65591H30.977C30.977 10.7312 31.4765 11.2688 32.4756 11.2688C32.9534 11.2688 33.8873 11.1039 35.2773 10.7742L35.5813 13.4409C34.3651 13.8136 33.1489 14 31.9326 14C30.4413 14 29.2974 13.5197 28.5011 12.5591C27.7048 11.5842 27.3066 10.2652 27.3066 8.60215C27.3066 5.01792 28.8414 3.22581 31.9109 3.22581Z" fill="black"/>
<path d="M49.4886 6.17204L49.38 10.6237C49.38 10.8961 49.4452 11.0824 49.5755 11.1828C49.7203 11.2688 49.9592 11.3118 50.2922 11.3118L49.9664 13.914C49.1266 13.9713 48.6633 14 48.5764 14C47.505 14 46.8245 13.6344 46.5349 12.9032H46.4263C45.8906 13.6344 45.0653 14 43.9504 14C43.0961 14 42.4373 13.7276 41.974 13.1828C41.5252 12.638 41.3007 11.8925 41.3007 10.9462C41.3007 9.75627 41.67 8.9319 42.4084 8.47312C43.1613 8.01434 44.3413 7.71326 45.9485 7.56989V7.05376C45.9485 6.65233 45.7458 6.45161 45.3404 6.45161C44.6454 6.45161 43.5595 6.6595 42.0826 7.07527L41.5396 3.93548C43.393 3.46237 44.935 3.22581 46.1657 3.22581C47.3964 3.22581 48.2579 3.46237 48.7502 3.93548C49.2425 4.4086 49.4886 5.15412 49.4886 6.17204ZM45.297 11.4839C45.8327 11.4839 46.1005 11.2043 46.1005 10.6452V9.5914C45.5648 9.66308 45.1811 9.77778 44.9495 9.93548C44.7323 10.0789 44.6237 10.3297 44.6237 10.6882C44.6237 11.2186 44.8481 11.4839 45.297 11.4839Z" fill="black"/>
<path d="M51.1077 11.4194V0H54.6912V10.2796C54.6912 10.5233 54.7419 10.6953 54.8432 10.7957C54.9591 10.8961 55.1545 10.9462 55.4296 10.9462L55.1473 14H53.9528C52.9972 14 52.2805 13.8065 51.8027 13.4194C51.3393 13.0179 51.1077 12.3513 51.1077 11.4194Z" fill="black"/>
<path d="M56.1767 11.4194V0H59.7603V10.2796C59.7603 10.5233 59.8109 10.6953 59.9123 10.7957C60.0281 10.8961 60.2236 10.9462 60.4987 10.9462L60.2164 14H59.0218C58.0662 14 57.3495 13.8065 56.8717 13.4194C56.4084 13.0179 56.1767 12.3513 56.1767 11.4194Z" fill="black"/>
<path d="M65.5895 6.30108C65.213 6.30108 64.9669 6.43011 64.8511 6.68817C64.7352 6.9319 64.6773 7.31183 64.6773 7.82796H66.5668V7.31183C66.5668 6.63799 66.241 6.30108 65.5895 6.30108ZM65.6764 3.22581C67.1677 3.22581 68.2319 3.58423 68.869 4.30108C69.5205 5.00358 69.8463 6.01434 69.8463 7.33333C69.8463 7.50538 69.7956 8.27957 69.6943 9.65591H64.7425C64.7425 10.7312 65.242 11.2688 66.241 11.2688C66.7188 11.2688 67.6527 11.1039 69.0427 10.7742L69.3468 13.4409C68.1305 13.8136 66.9143 14 65.6981 14C64.2067 14 63.0629 13.5197 62.2666 12.5591C61.4702 11.5842 61.072 10.2652 61.072 8.60215C61.072 5.01792 62.6068 3.22581 65.6764 3.22581Z" fill="black"/>
<path d="M74.4589 8V13.7849H70.8537V3.48387H74.0246L74.2417 4.10753H74.3286C74.6616 3.73477 74.9947 3.49821 75.3277 3.39785C75.6752 3.28315 76.2326 3.22581 77 3.22581L76.848 6.66667H75.8489C75.2842 6.66667 74.9078 6.75269 74.7196 6.92473C74.5458 7.09677 74.4589 7.4552 74.4589 8Z" fill="black"/>
<defs>
<clipPath id="clip0_299_657">
<rect width="65" height="65" fill="white" transform="translate(7 16)"/>
</clipPath>
</defs>
</svg>
