<svg width="44" height="66" viewBox="0 0 44 66" fill="none" xmlns="http://www.w3.org/2000/svg">
<path d="M10.0203 53.8876H6.0603V56.1196H9.2523V59.2876H6.0603V65.1196H1.9563V50.2156H10.2603L10.0203 53.8876Z" fill="black"/>
<path d="M21.8947 65.1196H17.8867L17.4307 62.7676H14.5987L14.1427 65.1196H10.3267L13.0627 50.2156H19.1587L21.8947 65.1196ZM16.9747 59.9596L16.1347 54.6316H15.9667L15.1267 59.9596H16.9747Z" fill="black"/>
<path d="M22.4718 54.7036C22.4718 53.2796 22.8878 52.1356 23.7198 51.2716C24.5518 50.4076 25.6878 49.9756 27.1278 49.9756C28.5838 49.9756 30.0718 50.1196 31.5918 50.4076L31.1118 54.2476C29.5278 53.8796 28.4398 53.6956 27.8478 53.6956C27.0958 53.6956 26.7198 53.9996 26.7198 54.6076C26.7198 54.8476 26.8958 55.0796 27.2478 55.3036C27.6158 55.5276 28.0558 55.7676 28.5678 56.0236C29.0798 56.2636 29.5918 56.5596 30.1038 56.9116C30.6158 57.2476 31.0478 57.7356 31.3998 58.3756C31.7678 59.0156 31.9518 59.7516 31.9518 60.5836C31.9518 62.1036 31.5438 63.2796 30.7278 64.1116C29.9118 64.9436 28.7518 65.3596 27.2478 65.3596C25.7598 65.3596 24.3038 65.1276 22.8798 64.6636L23.1438 61.0876C24.8558 61.5836 26.0478 61.8316 26.7198 61.8316C27.3918 61.8316 27.7278 61.5356 27.7278 60.9436C27.7278 60.6396 27.5438 60.3596 27.1758 60.1036C26.8238 59.8476 26.3918 59.5916 25.8798 59.3356C25.3678 59.0796 24.8478 58.7836 24.3198 58.4476C23.8078 58.1116 23.3678 57.6236 22.9998 56.9836C22.6478 56.3436 22.4718 55.5836 22.4718 54.7036Z" fill="black"/>
<path d="M42.05 53.8396H39.266V65.1196H35.162V53.8396H32.21L32.45 50.2156H42.29L42.05 53.8396Z" fill="black"/>
<g clip-path="url(#clip0_539_539)">
<path d="M37.9739 3.20376e-10H38.4761C41.0844 3.20376e-10 43.2013 2.11533 43.2013 4.72171V5.22356C43.199 11.4842 40.7088 17.4876 36.2782 21.9141L35.0416 23.1526C34.1938 23.9998 33.3108 24.8146 32.3982 25.5917V34.2445C32.3982 35.885 31.5477 37.4067 30.1491 38.2647L22.659 42.8704C22.3959 43.0329 22.099 43.133 21.7911 43.1628C21.4832 43.1926 21.1726 43.1515 20.8831 43.0426C20.5936 42.9337 20.333 42.7598 20.1213 42.5344C19.9096 42.3091 19.7524 42.0382 19.6619 41.7426L17.086 33.373C16.9469 33.2711 16.8159 33.1583 16.6945 33.0358L10.136 26.4847C10.0144 26.3633 9.90241 26.2325 9.80121 26.0935L1.42555 23.5195C1.12976 23.4291 0.858665 23.272 0.633132 23.0605C0.407599 22.8489 0.233634 22.5885 0.124622 22.2992C0.0156094 22.01 -0.0255453 21.6996 0.0043238 21.3919C0.0341929 21.0842 0.13429 20.7875 0.296914 20.5246L4.91406 13.04C5.33645 12.353 5.92806 11.7856 6.6324 11.3921C7.33673 10.9987 8.13026 10.7922 8.93718 10.7925H17.5883C18.3659 9.88051 19.1813 8.99823 20.0291 8.15102L21.2685 6.91528C23.4621 4.72287 26.0665 2.98375 28.9328 1.79721C31.7992 0.61068 34.8713 -1.61512e-05 37.9739 3.20376e-10ZM24.1333 9.77529H24.1279L22.8912 11.011C20.8392 13.0616 19.0112 15.3226 17.4371 17.7563L13.3869 24.0079L19.1732 29.7899L25.4293 25.7428C27.8648 24.1698 30.1274 22.3431 32.1768 20.2926L33.4162 19.0568C35.2338 17.2401 36.6756 15.0834 37.6592 12.7099C38.6427 10.3364 39.1488 7.79252 39.1484 5.22356V4.72171C39.1484 4.54281 39.0773 4.37124 38.9507 4.24474C38.8241 4.11825 38.6524 4.04718 38.4734 4.04718H37.9712C32.781 4.04763 27.8034 6.10805 24.1333 9.77529ZM9.61221 39.2846C7.63574 41.2596 3.31021 42.1042 1.49845 42.3821C1.40078 42.3977 1.30078 42.3903 1.20652 42.3603C1.11225 42.3303 1.02635 42.2786 0.955734 42.2094C0.886453 42.1388 0.834723 42.053 0.804708 41.9588C0.774693 41.8646 0.767233 41.7647 0.782929 41.6671C1.06104 39.8566 1.90616 35.5342 3.88803 33.5646C4.25447 33.1495 4.70213 32.8139 5.20339 32.5783C5.70464 32.3427 6.24888 32.2123 6.80252 32.195C7.35617 32.1777 7.9075 32.2739 8.4225 32.4777C8.93751 32.6815 9.40527 32.9886 9.79695 33.38C10.1886 33.7714 10.4959 34.2388 10.6999 34.7534C10.9038 35.2681 11.0001 35.819 10.9828 36.3722C10.9655 36.9255 10.835 37.4693 10.5992 37.9702C10.3635 38.4711 10.0276 38.9184 9.61221 39.2846ZM28.3508 28.6675C28.1132 28.8294 27.8729 28.9859 27.6326 29.1397L21.2874 33.2435L22.767 38.0543L28.0295 34.8165C28.1277 34.7561 28.2088 34.6716 28.2651 34.571C28.3213 34.4704 28.3508 34.3571 28.3508 34.2418V28.6675ZM9.93082 21.8979L14.0403 15.5574C14.1969 15.3145 14.3563 15.0771 14.5156 14.8397H8.93448C8.81916 14.8396 8.70575 14.8691 8.60507 14.9253C8.50439 14.9815 8.4198 15.0626 8.35937 15.1607L5.11926 20.4221L9.93082 21.8979ZM32.4009 13.4906C32.4009 14.2062 32.1164 14.8925 31.6101 15.3985C31.1037 15.9045 30.4169 16.1887 29.7008 16.1887C28.9847 16.1887 28.298 15.9045 27.7916 15.3985C27.2852 14.8925 27.0008 14.2062 27.0008 13.4906C27.0008 12.775 27.2852 12.0887 27.7916 11.5827C28.298 11.0767 28.9847 10.7925 29.7008 10.7925C30.4169 10.7925 31.1037 11.0767 31.6101 11.5827C32.1164 12.0887 32.4009 12.775 32.4009 13.4906Z" fill="black"/>
</g>
<defs>
<clipPath id="clip0_539_539">
<rect width="43.2014" height="43.1699" fill="white"/>
</clipPath>
</defs>
</svg>
