<svg width="90" height="52" viewBox="0 0 90 52" fill="none" xmlns="http://www.w3.org/2000/svg">
<path d="M9.90205 48H7.54705V43.14H7.41205L6.52705 48H4.11205L3.27205 43.14H3.12205V48H0.797051L1.11205 38.685H4.48705L5.32705 43.725H5.44705L6.25705 38.685H9.58705L9.90205 48ZM10.7963 44.385C10.7963 43.065 11.0463 42.11 11.5463 41.52C12.0563 40.93 12.8463 40.635 13.9163 40.635C14.9963 40.635 15.7813 40.925 16.2713 41.505C16.7613 42.085 17.0063 43.04 17.0063 44.37C17.0063 45.69 16.7663 46.65 16.2863 47.25C15.8063 47.85 15.0213 48.15 13.9313 48.15C12.8413 48.15 12.0463 47.85 11.5463 47.25C11.0463 46.65 10.7963 45.695 10.7963 44.385ZM14.3963 42.96C14.3363 42.76 14.1763 42.66 13.9163 42.66C13.6563 42.66 13.4913 42.76 13.4213 42.96C13.3513 43.16 13.3163 43.58 13.3163 44.22V44.58C13.3163 45.29 13.3513 45.75 13.4213 45.96C13.4913 46.17 13.6513 46.275 13.9013 46.275C14.1613 46.275 14.3263 46.17 14.3963 45.96C14.4663 45.75 14.5013 45.32 14.5013 44.67V44.235C14.5013 43.585 14.4663 43.16 14.3963 42.96ZM21.6264 40.65C22.5664 40.65 23.1914 40.925 23.5014 41.475C23.8114 42.015 23.9664 42.95 23.9664 44.28C23.9664 45.6 23.8014 46.575 23.4714 47.205C23.1414 47.835 22.4964 48.15 21.5364 48.15C20.7864 48.15 20.2614 47.955 19.9614 47.565H19.9014L19.7514 48H17.7864V38.385H20.2914V40.98H20.3514C20.6814 40.76 21.1064 40.65 21.6264 40.65ZM21.3564 45.75C21.3964 45.57 21.4214 45.395 21.4314 45.225C21.4414 45.055 21.4464 44.735 21.4464 44.265C21.4464 43.785 21.4114 43.42 21.3414 43.17C21.2714 42.91 21.1264 42.78 20.9064 42.78C20.6964 42.78 20.4864 42.84 20.2764 42.96V46.065C20.4664 46.155 20.6464 46.2 20.8164 46.2C20.9964 46.2 21.1214 46.17 21.1914 46.11C21.2714 46.04 21.3264 45.92 21.3564 45.75ZM27.3087 48H24.8337V40.89H27.3087V48ZM25.0287 40.32C24.8187 40.14 24.7137 39.85 24.7137 39.45C24.7137 39.05 24.8187 38.755 25.0287 38.565C25.2387 38.375 25.5837 38.28 26.0637 38.28C26.5437 38.28 26.8887 38.375 27.0987 38.565C27.3087 38.755 27.4137 39.05 27.4137 39.45C27.4137 39.84 27.3087 40.13 27.0987 40.32C26.8887 40.5 26.5437 40.59 26.0637 40.59C25.5837 40.59 25.2387 40.5 25.0287 40.32ZM28.2601 46.35V38.385H30.7351V45.555C30.7351 45.725 30.7701 45.845 30.8401 45.915C30.9201 45.985 31.0551 46.02 31.2451 46.02L31.0501 48.15H30.2251C29.5651 48.15 29.0701 48.015 28.7401 47.745C28.4201 47.465 28.2601 47 28.2601 46.35ZM34.296 48H31.821V40.89H34.296V48ZM32.016 40.32C31.806 40.14 31.701 39.85 31.701 39.45C31.701 39.05 31.806 38.755 32.016 38.565C32.226 38.375 32.571 38.28 33.051 38.28C33.531 38.28 33.876 38.375 34.086 38.565C34.296 38.755 34.401 39.05 34.401 39.45C34.401 39.84 34.296 40.13 34.086 40.32C33.876 40.5 33.531 40.59 33.051 40.59C32.571 40.59 32.226 40.5 32.016 40.32ZM39.2974 48.015C38.5574 48.105 37.9124 48.15 37.3624 48.15C36.8224 48.15 36.3974 48.01 36.0874 47.73C35.7874 47.44 35.6374 46.945 35.6374 46.245V42.765H34.9174V40.905H35.7574L35.8924 39.525H38.1574V40.905H39.4924L39.3874 42.765H38.1424V45.75C38.1424 45.96 38.2424 46.065 38.4424 46.065C38.4624 46.065 38.7724 46.05 39.3724 46.02L39.2974 48.015ZM43.0381 42.78C42.7781 42.78 42.6081 42.87 42.5281 43.05C42.4481 43.22 42.4081 43.485 42.4081 43.845H43.7131V43.485C43.7131 43.015 43.4881 42.78 43.0381 42.78ZM43.0981 40.635C44.1281 40.635 44.8631 40.885 45.3031 41.385C45.7531 41.875 45.9781 42.58 45.9781 43.5C45.9781 43.62 45.9431 44.16 45.8731 45.12H42.4531C42.4531 45.87 42.7981 46.245 43.4881 46.245C43.8181 46.245 44.4631 46.13 45.4231 45.9L45.6331 47.76C44.7931 48.02 43.9531 48.15 43.1131 48.15C42.0831 48.15 41.2931 47.815 40.7431 47.145C40.1931 46.465 39.9181 45.545 39.9181 44.385C39.9181 41.885 40.9781 40.635 43.0981 40.635ZM45.4381 38.1L43.8181 40.2H42.0931L43.0381 38.1H45.4381ZM52.3126 43.965V48H49.8226V40.815H52.0126L52.1626 41.25H52.2226C52.4526 40.99 52.6826 40.825 52.9126 40.755C53.1526 40.675 53.5376 40.635 54.0676 40.635L53.9626 43.035H53.2726C52.8826 43.035 52.6226 43.095 52.4926 43.215C52.3726 43.335 52.3126 43.585 52.3126 43.965ZM57.5547 42.78C57.2947 42.78 57.1247 42.87 57.0447 43.05C56.9647 43.22 56.9247 43.485 56.9247 43.845H58.2297V43.485C58.2297 43.015 58.0047 42.78 57.5547 42.78ZM57.6147 40.635C58.6447 40.635 59.3797 40.885 59.8197 41.385C60.2697 41.875 60.4947 42.58 60.4947 43.5C60.4947 43.62 60.4597 44.16 60.3897 45.12H56.9697C56.9697 45.87 57.3147 46.245 58.0047 46.245C58.3347 46.245 58.9797 46.13 59.9397 45.9L60.1497 47.76C59.3097 48.02 58.4697 48.15 57.6297 48.15C56.5997 48.15 55.8097 47.815 55.2597 47.145C54.7097 46.465 54.4347 45.545 54.4347 44.385C54.4347 41.885 55.4947 40.635 57.6147 40.635ZM59.9547 38.1L58.3347 40.2H56.6097L57.5547 38.1H59.9547ZM67.5497 48.09L66.5447 48.15C65.7747 48.15 65.3047 47.895 65.1347 47.385H65.0597C64.7297 47.895 64.2247 48.15 63.5447 48.15C62.6447 48.15 62.0097 47.835 61.6397 47.205C61.2797 46.575 61.0997 45.64 61.0997 44.4C61.0997 43.15 61.3047 42.21 61.7147 41.58C62.1247 40.95 62.7147 40.635 63.4847 40.635C64.0147 40.635 64.4247 40.76 64.7147 41.01V38.385H67.2197V45.795C67.2197 45.985 67.2597 46.115 67.3397 46.185C67.4197 46.245 67.5647 46.275 67.7747 46.275L67.5497 48.09ZM64.1447 42.75C63.9347 42.75 63.7947 42.88 63.7247 43.14C63.6547 43.39 63.6197 43.755 63.6197 44.235C63.6197 44.705 63.6247 45.025 63.6347 45.195C63.6447 45.365 63.6647 45.54 63.6947 45.72C63.7347 45.89 63.7897 46.01 63.8597 46.08C63.9397 46.14 64.0647 46.17 64.2347 46.17C64.4147 46.17 64.5997 46.125 64.7897 46.035V42.93C64.5797 42.81 64.3647 42.75 64.1447 42.75ZM70.1232 48.15C68.9332 48.15 68.3382 47.49 68.3382 46.17V40.815H70.8882V45.555C70.8882 45.805 70.9982 45.93 71.2182 45.93C71.4982 45.93 71.7332 45.86 71.9232 45.72V40.815H74.4432V47.97H72.0582V47.445H71.9982C71.4482 47.915 70.8232 48.15 70.1232 48.15ZM77.8751 48H75.4001V40.89H77.8751V48ZM75.5951 40.32C75.3851 40.14 75.2801 39.85 75.2801 39.45C75.2801 39.05 75.3851 38.755 75.5951 38.565C75.8051 38.375 76.1501 38.28 76.6301 38.28C77.1101 38.28 77.4551 38.375 77.6651 38.565C77.8751 38.755 77.9801 39.05 77.9801 39.45C77.9801 39.84 77.8751 40.13 77.6651 40.32C77.4551 40.5 77.1101 40.59 76.6301 40.59C76.1501 40.59 75.8051 40.5 75.5951 40.32ZM82.8765 48.015C82.1365 48.105 81.4915 48.15 80.9415 48.15C80.4015 48.15 79.9765 48.01 79.6665 47.73C79.3665 47.44 79.2165 46.945 79.2165 46.245V42.765H78.4965V40.905H79.3365L79.4715 39.525H81.7365V40.905H83.0715L82.9665 42.765H81.7215V45.75C81.7215 45.96 81.8215 46.065 82.0215 46.065C82.0415 46.065 82.3515 46.05 82.9515 46.02L82.8765 48.015ZM86.5872 42.78C86.3272 42.78 86.1572 42.87 86.0772 43.05C85.9972 43.22 85.9572 43.485 85.9572 43.845H87.2622V43.485C87.2622 43.015 87.0372 42.78 86.5872 42.78ZM86.6472 40.635C87.6772 40.635 88.4122 40.885 88.8522 41.385C89.3022 41.875 89.5272 42.58 89.5272 43.5C89.5272 43.62 89.4922 44.16 89.4222 45.12H86.0022C86.0022 45.87 86.3472 46.245 87.0372 46.245C87.3672 46.245 88.0122 46.13 88.9722 45.9L89.1822 47.76C88.3422 48.02 87.5022 48.15 86.6622 48.15C85.6322 48.15 84.8422 47.815 84.2922 47.145C83.7422 46.465 83.4672 45.545 83.4672 44.385C83.4672 41.885 84.5272 40.635 86.6472 40.635Z" fill="black" fill-opacity="0.7"/>
<path d="M43.8695 6.261C45.0462 6.261 46 5.30714 46 4.1305C46 2.95386 45.0462 2 43.8695 2C42.6929 2 41.739 2.95386 41.739 4.1305C41.739 5.30714 42.6929 6.261 43.8695 6.261Z" fill="black" fill-opacity="0.7"/>
<path d="M58.7575 22.5298L55.7611 23.2789L54.5625 17.6856C54.4892 17.3507 54.304 17.0507 54.0374 16.8352C53.7708 16.6196 53.4387 16.5014 53.0958 16.4999H47.5517L47.1479 12.9999H54V10.9999H46.9171L46.6587 8.76081C46.6362 8.56513 46.5753 8.3758 46.4795 8.20365C46.3838 8.0315 46.2551 7.8799 46.1007 7.75749C45.9464 7.63509 45.7695 7.54428 45.58 7.49026C45.3906 7.43623 45.1924 7.42005 44.9967 7.44263L42.5132 7.72919L43.7562 18.4999H52.6919L54.2392 25.721L59.2428 24.4701L58.7575 22.5298Z" fill="black" fill-opacity="0.7"/>
<path d="M44 28C42.2611 27.9998 40.5764 27.3953 39.234 26.29C37.8916 25.1848 36.9749 23.6474 36.6408 21.9409C36.3068 20.2344 36.576 18.4649 37.4026 16.935C38.2291 15.4051 39.5616 14.21 41.172 13.5541L40.9358 11.5072C37.1964 12.7849 34.5 16.3334 34.5 20.5C34.5 25.7383 38.7617 30 44 30C45.6348 29.9992 47.2418 29.5767 48.6656 28.7733C50.0894 27.9699 51.2818 26.8128 52.1278 25.4139L51.5 22.5C50.5 25.5 47.6625 28 44 28Z" fill="black" fill-opacity="0.7"/>
</svg>
