<?xml version="1.0" encoding="utf-8"?>
<!-- Generator: Adobe Illustrator 27.5.0, SVG Export Plug-In . SVG Version: 6.00 Build 0)  -->
<svg version="1.1" id="Calque_1" xmlns="http://www.w3.org/2000/svg" xmlns:xlink="http://www.w3.org/1999/xlink" x="0px" y="0px"
	 viewBox="0 0 1600 1600" style="enable-background:new 0 0 1600 1600;" xml:space="preserve">
<style type="text/css">
	.st0{fill:#FFFFFF;}
</style>
<g>
	<g>
		<path d="M945.1,1988.3c66.8,0,133.7,0,200.5,0c35.1,0,60.1,15,76.5,47.1c32.3,63,66.7,124.9,99.3,187.7
			c6.1,11.7,10.5,25.7,10.8,38.7c1.1,63.3,0.8,126.5,0.3,189.8c-0.5,59.6-50.4,107.3-110.4,105.4c-14.4-0.5-23,3.1-32.1,15.4
			c-61.1,82.3-188.1,79.1-249.1-5.8c-5.6-7.9-10.9-10.9-20.7-10.9c-134.2,0.3-268.3,0.2-402.5-0.2c-9.8,0-15.2,3.2-21.1,10.6
			c-56.5,70.5-144,87.5-216.1,40.9c-14.4-9.3-26.5-23.4-36.8-37.4c-7.2-9.8-14.2-13.6-25.9-13.8c-16.1-0.2-32.5-0.6-48.2-3.9
			c-36.1-7.7-74.4-45.7-71.3-93.4c2.2-33.8,1.8-67.9,0.1-101.7c-3.4-65.9,29.4-108.8,83.9-139.5c47.9-27,100.9-31,153.9-35.8
			c46.9-4.3,93.8-8.1,140.6-12.3c3.2-0.3,6.8-1.7,9.3-3.7c67.6-52.3,135.3-104.6,202.6-157.3c17.1-13.4,35.8-20,57.5-19.9
			C812.4,1988.5,878.8,1988.4,945.1,1988.3z M1268.6,2257.3c-8.4,0-14.9,0-21.4,0c-126,0-252.1-0.1-378.1-0.1
			c-108.3,0-216.7,0.1-325,0c-20.5,0-41.2-0.8-56.2-17.3c-6.2-6.8-12.1-8.9-21-8.1c-53.9,4.9-107.9,9-161.8,13.8
			c-38.3,3.4-74.8,12.7-106.7,35.5c-20,14.3-36.1,31.6-36.4,58c-0.4,38.5-0.1,76.9,0.3,115.4c0.3,27.4,23.6,44.2,50.7,37.2
			c-4.3-100.2,75.4-153.8,133.8-158.6c38.8-3.1,75.7,2,108.4,25.4c46.1,33.1,66.5,79.6,68.7,135.4c130,0,258.3,0,386.6,0
			c-5.3-104.9,81.3-165.5,155-163.4c39.9,1.1,75.8,11.7,105.9,38.7c36.8,33,53.8,74.6,52.3,123.9c27.9-4.7,44.4-19.4,44.6-42.4
			C1269.1,2387,1268.6,2323.3,1268.6,2257.3z M1090.3,2196c-2.8-7-4.9-12.6-7.3-18c-17.7-38.6-36-76.9-52.9-115.9
			c-4.5-10.3-10.1-12.7-20.4-12.7c-82,0.3-164-0.5-246,0.7c-14.1,0.2-30.3,5.6-41.8,13.8c-37.9,27-74,56.4-110.9,84.8
			c-19.8,15.2-39.8,30.1-62.3,47.2C730.7,2196,909.2,2196,1090.3,2196z M1068.1,2393c-49.2-0.7-90.2,37.3-91.1,84.3
			c-1,49.6,40.8,92.3,90.5,92.6c48.3,0.3,90.5-39,91.3-85C1159.6,2434.3,1119.6,2393.8,1068.1,2393z M278,2481.9
			c-0.2,50,37.5,87.4,88.7,87.8c48.1,0.4,90.1-39.6,90.2-86c0.2-49.2-40.4-90.2-89.3-90.3C319.2,2393.2,278.2,2433.7,278,2481.9z
			 M1092.8,2049.6c24,49.4,46.4,95.6,69.1,141.7c1.2,2.5,5.1,5.1,7.8,5.2c20.9,0.4,41.9,0.2,63.4,0.2c-0.7-3.5-0.6-5.2-1.2-6.4
			c-23.4-44.7-46.7-89.4-70.5-133.9c-1.7-3.2-6.8-6.3-10.4-6.5C1132.8,2049.2,1114.7,2049.6,1092.8,2049.6z"/>
		<path class="st0" d="M1066.7,2424.1c-30.3-0.3-55.1,23.8-55.8,54.3c-0.7,31,25.1,57.3,56.3,57.7c32.9,0.3,58.3-22.8,58.4-53.3
			C1125.9,2450.2,1099.9,2424.4,1066.7,2424.1z"/>
		<path class="st0" d="M424.4,2482.5c0.3-32.3-23.9-57.8-55.4-58.2c-31-0.4-55.6,24.7-56.2,57.5c-0.5,29.9,24.7,54.8,55.4,54.7
			C399.5,2536.4,424,2512.8,424.4,2482.5z"/>
		<path d="M726.8,2410.3c44.5,0,88.9,0.1,133.4,0c17.4,0,28,8.3,30.9,24.8c2.9,16.7-5.1,30-21.5,35c-3.8,1.2-7.9,1.7-11.9,1.7
			c-86.9,0.1-173.9,0.1-260.8-0.1c-19.2-0.1-32.8-12.8-33.6-29.9c-1-20.7,9.6-31.2,31.6-31.2c44,0,87.9,0,131.9,0
			C726.8,2410.6,726.8,2410.4,726.8,2410.3z"/>
		<path d="M844.7,2302.3c17.7,0,35.4-0.1,53.1,0c18.8,0.1,29.5,9.5,30.4,26.3c0.8,15.1-10.9,30.7-27.1,31.1
			c-38.9,1.1-77.8,0.9-116.7-0.1c-13.7-0.3-23.7-15.7-23-31.1c0.6-15.2,10.5-25.9,25.7-26.3c19.2-0.6,38.4-0.1,57.6-0.1
			C844.7,2302.2,844.7,2302.3,844.7,2302.3z"/>
		<path d="M1066.7,2424.1c33.2,0.3,59.1,26.1,59,58.7c-0.1,30.5-25.5,53.7-58.4,53.3c-31.3-0.3-57-26.7-56.3-57.7
			C1011.6,2447.9,1036.4,2423.8,1066.7,2424.1z"/>
		<path d="M424.4,2482.5c-0.3,30.3-24.8,53.9-56.2,54c-30.7,0.1-55.9-24.9-55.4-54.7c0.6-32.8,25.2-57.9,56.2-57.5
			C400.5,2424.7,424.7,2450.1,424.4,2482.5z"/>
	</g>
</g>
<g>
	<g>
		<path d="M945.1,1988.3c66.8,0,133.7,0,200.5,0c35.1,0,60.1,15,76.5,47.1c32.3,63,66.7,124.9,99.3,187.7
			c6.1,11.7,10.5,25.7,10.8,38.7c1.1,63.3,0.8,126.5,0.3,189.8c-0.5,59.6-50.4,107.3-110.4,105.4c-14.4-0.5-23,3.1-32.1,15.4
			c-61.1,82.3-188.1,79.1-249.1-5.8c-5.6-7.9-10.9-10.9-20.7-10.9c-134.2,0.3-268.3,0.2-402.5-0.2c-9.8,0-15.2,3.2-21.1,10.6
			c-56.5,70.5-144,87.5-216.1,40.9c-14.4-9.3-26.5-23.4-36.8-37.4c-7.2-9.8-14.2-13.6-25.9-13.8c-16.1-0.2-32.5-0.6-48.2-3.9
			c-36.1-7.7-74.4-45.7-71.3-93.4c2.2-33.8,1.8-67.9,0.1-101.7c-3.4-65.9,29.4-108.8,83.9-139.5c47.9-27,100.9-31,153.9-35.8
			c46.9-4.3,93.8-8.1,140.6-12.3c3.2-0.3,6.8-1.7,9.3-3.7c67.6-52.3,135.3-104.6,202.6-157.3c17.1-13.4,35.8-20,57.5-19.9
			C812.4,1988.5,878.8,1988.4,945.1,1988.3z M1268.6,2257.3c-8.4,0-14.9,0-21.4,0c-126,0-252.1-0.1-378.1-0.1
			c-108.3,0-216.7,0.1-325,0c-20.5,0-41.2-0.8-56.2-17.3c-6.2-6.8-12.1-8.9-21-8.1c-53.9,4.9-107.9,9-161.8,13.8
			c-38.3,3.4-74.8,12.7-106.7,35.5c-20,14.3-36.1,31.6-36.4,58c-0.4,38.5-0.1,76.9,0.3,115.4c0.3,27.4,23.6,44.2,50.7,37.2
			c-4.3-100.2,75.4-153.8,133.8-158.6c38.8-3.1,75.7,2,108.4,25.4c46.1,33.1,66.5,79.6,68.7,135.4c130,0,258.3,0,386.6,0
			c-5.3-104.9,81.3-165.5,155-163.4c39.9,1.1,75.8,11.7,105.9,38.7c36.8,33,53.8,74.6,52.3,123.9c27.9-4.7,44.4-19.4,44.6-42.4
			C1269.1,2387,1268.6,2323.3,1268.6,2257.3z M1090.3,2196c-2.8-7-4.9-12.6-7.3-18c-17.7-38.6-36-76.9-52.9-115.9
			c-4.5-10.3-10.1-12.7-20.4-12.7c-82,0.3-164-0.5-246,0.7c-14.1,0.2-30.3,5.6-41.8,13.8c-37.9,27-74,56.4-110.9,84.8
			c-19.8,15.2-39.8,30.1-62.3,47.2C730.7,2196,909.2,2196,1090.3,2196z M1068.1,2393c-49.2-0.7-90.2,37.3-91.1,84.3
			c-1,49.6,40.8,92.3,90.5,92.6c48.3,0.3,90.5-39,91.3-85C1159.6,2434.3,1119.6,2393.8,1068.1,2393z M278,2481.9
			c-0.2,50,37.5,87.4,88.7,87.8c48.1,0.4,90.1-39.6,90.2-86c0.2-49.2-40.4-90.2-89.3-90.3C319.2,2393.2,278.2,2433.7,278,2481.9z
			 M1092.8,2049.6c24,49.4,46.4,95.6,69.1,141.7c1.2,2.5,5.1,5.1,7.8,5.2c20.9,0.4,41.9,0.2,63.4,0.2c-0.7-3.5-0.6-5.2-1.2-6.4
			c-23.4-44.7-46.7-89.4-70.5-133.9c-1.7-3.2-6.8-6.3-10.4-6.5C1132.8,2049.2,1114.7,2049.6,1092.8,2049.6z"/>
		<path class="st0" d="M1066.7,2424.1c-30.3-0.3-55.1,23.8-55.8,54.3c-0.7,31,25.1,57.3,56.3,57.7c32.9,0.3,58.3-22.8,58.4-53.3
			C1125.9,2450.2,1099.9,2424.4,1066.7,2424.1z"/>
		<path class="st0" d="M424.4,2482.5c0.3-32.3-23.9-57.8-55.4-58.2c-31-0.4-55.6,24.7-56.2,57.5c-0.5,29.9,24.7,54.8,55.4,54.7
			C399.5,2536.4,424,2512.8,424.4,2482.5z"/>
		<path d="M726.8,2410.3c44.5,0,88.9,0.1,133.4,0c17.4,0,28,8.3,30.9,24.8c2.9,16.7-5.1,30-21.5,35c-3.8,1.2-7.9,1.7-11.9,1.7
			c-86.9,0.1-173.9,0.1-260.8-0.1c-19.2-0.1-32.8-12.8-33.6-29.9c-1-20.7,9.6-31.2,31.6-31.2c44,0,87.9,0,131.9,0
			C726.8,2410.6,726.8,2410.4,726.8,2410.3z"/>
		<path d="M844.7,2302.3c17.7,0,35.4-0.1,53.1,0c18.8,0.1,29.5,9.5,30.4,26.3c0.8,15.1-10.9,30.7-27.1,31.1
			c-38.9,1.1-77.8,0.9-116.7-0.1c-13.7-0.3-23.7-15.7-23-31.1c0.6-15.2,10.5-25.9,25.7-26.3c19.2-0.6,38.4-0.1,57.6-0.1
			C844.7,2302.2,844.7,2302.3,844.7,2302.3z"/>
		<path d="M1066.7,2424.1c33.2,0.3,59.1,26.1,59,58.7c-0.1,30.5-25.5,53.7-58.4,53.3c-31.3-0.3-57-26.7-56.3-57.7
			C1011.6,2447.9,1036.4,2423.8,1066.7,2424.1z"/>
		<path d="M424.4,2482.5c-0.3,30.3-24.8,53.9-56.2,54c-30.7,0.1-55.9-24.9-55.4-54.7c0.6-32.8,25.2-57.9,56.2-57.5
			C400.5,2424.7,424.7,2450.1,424.4,2482.5z"/>
	</g>
</g>
<g>
	<g>
		<path d="M1132,2662.2c0,12.2-0.6,24.5,0.1,36.7c1.8,27.9-12.3,46.9-33,62.9c-4.5,3.5-8.7,8.3-10.9,13.5
			c-17.1,40.5-45.3,67.3-89.9,73.8c-46.1,6.7-87.1-13.7-111.3-55.4c-3.7-6.3-7.5-8.1-14.3-8.1c-106,0.2-212.1,0.2-318.1-0.1
			c-7.2,0-11.5,1.7-15.2,8.4c-32.3,56.8-98.7,70.5-148,45c-25.4-13.1-42.7-34-51.9-61.5c-1.3-3.9-4.7-8-8.2-10.2
			c-22.1-13.9-37-31.2-34.8-59.7c1.3-17.2,0.2-34.7,0.2-52c0.1-30.8,17.3-54.6,47.8-60.9c33.2-6.9,66.8-12.3,100.5-16.1
			c34.7-3.9,69.7-5,104.5-7.9c4.9-0.4,10.5-2.7,14.4-5.8c49.5-39.3,98.6-79.1,148.3-118c6.6-5.2,16.7-8.4,25.1-8.5
			c94.5-0.5,188.9-0.4,283.4,0c10.6,0.1,21.7,2.1,31.8,5.4c13.1,4.3,22,14.2,27.1,27.3c16.1,41.5,32.4,82.8,48.2,124.4
			c2.6,6.8,3.8,14.5,4.1,21.8C1132.4,2632.3,1132,2647.2,1132,2662.2C1132,2662.2,1132,2662.2,1132,2662.2z M1097.7,2606.5
			c-5.5,0-9.2,0-12.9,0c-118.9,0-237.8-1-356.7,0.3c-101.1,1.1-202.5-7.8-303.1,9.9c-23.4,4.1-47.1,6.6-70.5,10.5
			c-17.6,3-23.4,11-23.4,28.6c0,17.3-0.9,34.6-0.8,52c0,4.7,1.8,9.4,2.8,14.1c0.8,0.1,1.7,0.2,2.5,0.3c7-27,20.6-49.5,43.6-65.6
			c23.2-16.3,48.9-22.8,77.1-19.5c24.2,2.8,44.7,13.3,62.7,29.2c25,22.1,33.6,51.6,35.7,83.3c106.5,0,212.3,0,318.1,0
			c-3.5-64.4,48.2-108.7,98.4-113.8c28.1-2.9,53.9,3.5,77,20.2c23.2,16.8,36.8,39.8,44.2,67.6c2.7-5.3,5.2-10.5,5.4-15.8
			c0.5-14.3,0-28.5-0.1-42.8C1097.7,2645.8,1097.7,2626.9,1097.7,2606.5z M809,2473.2c-20.3,0-39.6,0.6-58.8-0.2
			c-12.4-0.5-22.5,3.5-31.8,11c-32.2,26.1-64.3,52.2-96.5,78.3c-2.7,2.2-5.3,4.5-9.1,7.8c66.8,0,131.3,0,196.2,0
			C809,2537.7,809,2506.6,809,2473.2z M981.3,2570.6c-5.4-31.6-10.5-62-16.2-92.3c-0.4-2.1-5.9-4.7-9.1-4.7
			c-29.2-0.4-58.4-0.2-87.6-0.3c-7.7,0-15.4,0-23.5,0c0,33.1,0,64.9,0,97.3C890.1,2570.6,934.8,2570.6,981.3,2570.6z M981.5,2818.7
			c43.9-0.2,80.1-34.5,79.8-75.7c-0.3-42.7-34.9-75.5-79.5-75.4c-41.2,0.1-77.2,36-76.9,76.6
			C905.2,2783.9,941.1,2818.8,981.5,2818.7z M441.9,2818.8c42.5,0,78.7-33.7,78.8-73.2c0.1-44.2-34.4-77.8-79.6-77.7
			c-41.2,0.2-75.1,34.8-75.2,76.7C365.9,2785.7,399.8,2818.8,441.9,2818.8z M1079.5,2571.3c-11-30-20.9-58.3-32-86.2
			c-1.8-4.5-7.9-9.2-12.7-10.1c-10.4-1.9-21.3-1.4-33.1-1.9c5.7,33.5,11.2,65.3,16.7,97.7c2.1,0.2,4.4,0.5,6.7,0.5
			C1042.7,2571.4,1060.3,2571.3,1079.5,2571.3z"/>
		<path d="M443,2694c21.9-0.5,39.7,7.8,49.3,27.7c8.8,18.1,6.7,36.9-6.7,52.5c-14.7,17.1-35.2,17.8-55.4,15.3
			c-25.1-3.1-42.4-23.9-41.1-47.5c1.3-25.5,22.9-47.1,47.9-48C438.9,2693.9,440.9,2694,443,2694z M444.2,2727.3c-2.6,0-5-0.1-7.4,0
			c-8.2,0.5-14.5,6.4-14.2,14c0.3,8.2,4.6,13.3,13.3,13.6c5.7,0.2,11.5,0.4,17.3-0.1c9.4-0.9,14.3-9.7,11-18.6
			C460.5,2726.1,452.2,2726.6,444.2,2727.3z"/>
		<path d="M982,2790.1c-19.8-0.1-37-5.2-46.9-24.2c-14.9-28.5-0.4-62,30.8-70.1c18.3-4.7,36.3-3.7,52.2,8.5
			c15.6,11.9,23,33,17.7,50.7c-6.6,22-21.7,33.6-45.7,35.1C987.4,2790.2,984.7,2790.1,982,2790.1z M983.1,2727.2c-1.7,0-3.4,0-5.1,0
			c-10.1,0.2-16.5,5.5-16.4,13.8c0.1,8,6.7,13.8,16.6,14.1c4.4,0.1,8.8,0.1,13.2-0.1c8.4-0.5,14.2-6.5,13.4-14.4
			c-0.8-7.8-4.6-13.4-13.6-13.3C988.5,2727.2,985.8,2727.2,983.1,2727.2z"/>
	</g>
</g>
<g>
	<g>
		<path d="M1132,2662.2c0,12.2-0.6,24.5,0.1,36.7c1.8,27.9-12.3,46.9-33,62.9c-4.5,3.5-8.7,8.3-10.9,13.5
			c-17.1,40.5-45.3,67.3-89.9,73.8c-46.1,6.7-87.1-13.7-111.3-55.4c-3.7-6.3-7.5-8.1-14.3-8.1c-106,0.2-212.1,0.2-318.1-0.1
			c-7.2,0-11.5,1.7-15.2,8.4c-32.3,56.8-98.7,70.5-148,45c-25.4-13.1-42.7-34-51.9-61.5c-1.3-3.9-4.7-8-8.2-10.2
			c-22.1-13.9-37-31.2-34.8-59.7c1.3-17.2,0.2-34.7,0.2-52c0.1-30.8,17.3-54.6,47.8-60.9c33.2-6.9,66.8-12.3,100.5-16.1
			c34.7-3.9,69.7-5,104.5-7.9c4.9-0.4,10.5-2.7,14.4-5.8c49.5-39.3,98.6-79.1,148.3-118c6.6-5.2,16.7-8.4,25.1-8.5
			c94.5-0.5,188.9-0.4,283.4,0c10.6,0.1,21.7,2.1,31.8,5.4c13.1,4.3,22,14.2,27.1,27.3c16.1,41.5,32.4,82.8,48.2,124.4
			c2.6,6.8,3.8,14.5,4.1,21.8C1132.4,2632.3,1132,2647.2,1132,2662.2C1132,2662.2,1132,2662.2,1132,2662.2z M1097.7,2606.5
			c-5.5,0-9.2,0-12.9,0c-118.9,0-237.8-1-356.7,0.3c-101.1,1.1-202.5-7.8-303.1,9.9c-23.4,4.1-47.1,6.6-70.5,10.5
			c-17.6,3-23.4,11-23.4,28.6c0,17.3-0.9,34.6-0.8,52c0,4.7,1.8,9.4,2.8,14.1c0.8,0.1,1.7,0.2,2.5,0.3c7-27,20.6-49.5,43.6-65.6
			c23.2-16.3,48.9-22.8,77.1-19.5c24.2,2.8,44.7,13.3,62.7,29.2c25,22.1,33.6,51.6,35.7,83.3c106.5,0,212.3,0,318.1,0
			c-3.5-64.4,48.2-108.7,98.4-113.8c28.1-2.9,53.9,3.5,77,20.2c23.2,16.8,36.8,39.8,44.2,67.6c2.7-5.3,5.2-10.5,5.4-15.8
			c0.5-14.3,0-28.5-0.1-42.8C1097.7,2645.8,1097.7,2626.9,1097.7,2606.5z M809,2473.2c-20.3,0-39.6,0.6-58.8-0.2
			c-12.4-0.5-22.5,3.5-31.8,11c-32.2,26.1-64.3,52.2-96.5,78.3c-2.7,2.2-5.3,4.5-9.1,7.8c66.8,0,131.3,0,196.2,0
			C809,2537.7,809,2506.6,809,2473.2z M981.3,2570.6c-5.4-31.6-10.5-62-16.2-92.3c-0.4-2.1-5.9-4.7-9.1-4.7
			c-29.2-0.4-58.4-0.2-87.6-0.3c-7.7,0-15.4,0-23.5,0c0,33.1,0,64.9,0,97.3C890.1,2570.6,934.8,2570.6,981.3,2570.6z M981.5,2818.7
			c43.9-0.2,80.1-34.5,79.8-75.7c-0.3-42.7-34.9-75.5-79.5-75.4c-41.2,0.1-77.2,36-76.9,76.6
			C905.2,2783.9,941.1,2818.8,981.5,2818.7z M441.9,2818.8c42.5,0,78.7-33.7,78.8-73.2c0.1-44.2-34.4-77.8-79.6-77.7
			c-41.2,0.2-75.1,34.8-75.2,76.7C365.9,2785.7,399.8,2818.8,441.9,2818.8z M1079.5,2571.3c-11-30-20.9-58.3-32-86.2
			c-1.8-4.5-7.9-9.2-12.7-10.1c-10.4-1.9-21.3-1.4-33.1-1.9c5.7,33.5,11.2,65.3,16.7,97.7c2.1,0.2,4.4,0.5,6.7,0.5
			C1042.7,2571.4,1060.3,2571.3,1079.5,2571.3z"/>
		<path d="M443,2694c21.9-0.5,39.7,7.8,49.3,27.7c8.8,18.1,6.7,36.9-6.7,52.5c-14.7,17.1-35.2,17.8-55.4,15.3
			c-25.1-3.1-42.4-23.9-41.1-47.5c1.3-25.5,22.9-47.1,47.9-48C438.9,2693.9,440.9,2694,443,2694z M444.2,2727.3c-2.6,0-5-0.1-7.4,0
			c-8.2,0.5-14.5,6.4-14.2,14c0.3,8.2,4.6,13.3,13.3,13.6c5.7,0.2,11.5,0.4,17.3-0.1c9.4-0.9,14.3-9.7,11-18.6
			C460.5,2726.1,452.2,2726.6,444.2,2727.3z"/>
		<path d="M982,2790.1c-19.8-0.1-37-5.2-46.9-24.2c-14.9-28.5-0.4-62,30.8-70.1c18.3-4.7,36.3-3.7,52.2,8.5
			c15.6,11.9,23,33,17.7,50.7c-6.6,22-21.7,33.6-45.7,35.1C987.4,2790.2,984.7,2790.1,982,2790.1z M983.1,2727.2c-1.7,0-3.4,0-5.1,0
			c-10.1,0.2-16.5,5.5-16.4,13.8c0.1,8,6.7,13.8,16.6,14.1c4.4,0.1,8.8,0.1,13.2-0.1c8.4-0.5,14.2-6.5,13.4-14.4
			c-0.8-7.8-4.6-13.4-13.6-13.3C988.5,2727.2,985.8,2727.2,983.1,2727.2z"/>
	</g>
</g>
<g>
	<g>
		<path d="M1384.6,961.1c0-44.8,1-87.6-0.5-130.3c-0.6-18.3-12.4-31.2-31.1-35.9c-42.1-10.6-83.8-23.9-126.4-30.6
			c-29.8-4.7-61.1-0.3-91.7-0.3c-65.9,0-131.8-0.3-197.7-0.2c-72.8,0.1-145.5,0.7-218.3,0.6c-71.6,0-143.2-0.6-214.8-0.7
			c-74.4-0.1-148.8,0.1-223.3,0.1c-5.8,0-11.6-0.2-17.5-0.5c-33.6-1.9-50.1,13.9-50.1,48.2c0,46.6-0.2,93.3-0.3,139.9
			c0,3,0.4,6.1,0.7,10.1c16.1,0,31.3-0.2,46.6,0.1c17.3,0.3,27.6,9.9,28.3,25.7c0.6,14.5-10.8,26.3-27.6,26.6
			c-22.8,0.4-45.6,0.2-68.3-0.8c-19.5-0.9-31.4-14.8-31.9-36.6c-0.6-27-0.3-54.1-0.3-81.1c-0.1-34.4,0.7-68.9-0.5-103.3
			c-0.5-15,3.9-26.5,13.7-37.3c64.3-71.2,129.3-141.7,191.9-214.3c19.4-22.5,39.7-29.4,68.4-29.2c172.2,1.3,344.5,1.7,516.7,0.2
			c62.6-0.6,113.2,19.2,154.1,67.1c35.1,41.1,72.3,80.3,109.1,119.9c4.3,4.6,11,7.9,17.2,9.5c44.4,12.1,89.1,23.1,133.4,35.6
			c55,15.5,76.7,45.1,76.6,101.6c-0.1,42.9,0.1,85.9-0.2,128.8c-0.2,27.8-12.1,39.2-40.1,39.4c-16.4,0.1-32.9,0.3-49.3,0.1
			c-17.9-0.3-28.8-10.9-28.5-27.1c0.2-15.8,9.8-24.5,28.2-25C1362,960.9,1373,961.1,1384.6,961.1z M282.1,713.6
			c149.5,0,295.8,0,442.1,0c0-50.5,0-99.5,0-150.7c-11.3,0-21.7,0-32.2,0c-78.4-0.1-156.8,1.1-235.2-1c-28-0.7-47.1,7.1-65,28.7
			C357.5,632.1,320.2,671.2,282.1,713.6z M779.2,713.9c125.2,0,248.7,0,373.9,0c-2.9-4.1-4.4-6.8-6.4-9
			c-30.1-33.5-60-67.2-90.4-100.3c-26.1-28.4-58.8-42-97.7-41.7c-54.6,0.4-109.1-0.1-163.7-0.2c-5.1,0-10.2,0.5-15.7,0.9
			C779.2,614.5,779.2,663.7,779.2,713.9z"/>
		<path d="M950.2,1005.9c0-94.8,72.1-166.8,166.8-166.8c88.8,0,161.3,75.4,160.5,166.6c-0.8,89.8-74.9,162.9-165.1,163.1
			C1019.7,1169.1,950.2,1099.2,950.2,1005.9z M1004.6,1008.5c-0.7,58.3,48.7,107.9,107.9,108.4c57.8,0.5,110-50.4,111.3-108.6
			c1.4-62.8-49.6-117.2-110.6-117.9C1055,889.6,1005.4,943.6,1004.6,1008.5z"/>
		<path d="M655.8,1010.5c-2,90.1-75.7,160.4-166.4,158.9c-90.6-1.5-160.6-74.7-158.5-165.8c2.2-95.7,73.8-165.8,167.6-164.3
			C584.5,840.7,657.8,920.5,655.8,1010.5z M497,1116.8c36.4-0.5,70-18.5,90.9-55.6c20.9-36.9,19.4-75.8-1.3-112.4
			c-29.2-51.7-83.9-71.6-133.9-48.9c-39.1,17.7-58.3,50.6-64.3,92.2C379.1,1057.6,427.3,1116.5,497,1116.8z"/>
		<path d="M800.1,961.2c24.4,0,48.7,0.1,73.1,0c21.2-0.1,34.2,10.6,34.2,28.6c0,15.4-11.7,24.1-32.7,24c-49.3-0.1-98.5,0-147.8-0.4
			c-20.3-0.1-31.1-9.4-31.6-25.8c-0.4-15.3,8.2-25.4,23.7-25.7c27-0.5,54-0.1,81.1-0.1C800.1,961.6,800.1,961.4,800.1,961.2z"/>
	</g>
</g>
</svg>
