<svg width="53" height="72" viewBox="0 0 53 72" fill="none" xmlns="http://www.w3.org/2000/svg">
<path d="M4.88336 62.9032C4.88336 61.7022 5.23421 60.7374 5.93591 60.0087C6.6376 59.28 7.59569 58.9156 8.81017 58.9156C10.0381 58.9156 11.2931 59.0371 12.575 59.28L12.1702 62.5186C10.8343 62.2082 9.91669 62.053 9.41741 62.053C8.78318 62.053 8.46607 62.3094 8.46607 62.8222C8.46607 63.0246 8.6145 63.2203 8.91137 63.4092C9.22174 63.5981 9.59283 63.8005 10.0246 64.0164C10.4565 64.2189 10.8883 64.4685 11.3201 64.7654C11.7519 65.0488 12.1162 65.4603 12.4131 66.0001C12.7235 66.5399 12.8787 67.1606 12.8787 67.8623C12.8787 69.1442 12.5346 70.1361 11.8464 70.8378C11.1582 71.5395 10.1798 71.8903 8.91137 71.8903C7.65641 71.8903 6.42844 71.6946 5.22746 71.3033L5.45012 68.2874C6.89399 68.7057 7.89931 68.9148 8.46607 68.9148C9.03282 68.9148 9.3162 68.6652 9.3162 68.1659C9.3162 67.9095 9.16102 67.6734 8.85065 67.4575C8.55378 67.2416 8.18944 67.0257 7.75762 66.8097C7.32581 66.5938 6.88725 66.3442 6.44194 66.0608C6.01013 65.7774 5.63904 65.3659 5.32867 64.8261C5.0318 64.2863 4.88336 63.6454 4.88336 62.9032Z" fill="black"/>
<path d="M20.4845 71.6879H14.0882V59.1181H17.5495V68.8744H20.6869L20.4845 71.6879Z" fill="black"/>
<path d="M22.1707 60.4337C22.9533 59.4217 24.2285 58.9156 25.9963 58.9156C27.764 58.9156 29.0257 59.4149 29.7814 60.4135C30.5505 61.4121 30.9351 63.0381 30.9351 65.2916C30.9351 67.5317 30.5438 69.1915 29.7611 70.271C28.9785 71.3505 27.71 71.8903 25.9558 71.8903C24.2015 71.8903 22.9398 71.3573 22.1707 70.2912C21.4015 69.2252 21.0169 67.5722 21.0169 65.3321C21.0169 63.0786 21.4015 61.4458 22.1707 60.4337ZM27.4536 65.2916C27.4536 64.0502 27.3524 63.2135 27.15 62.7817C26.9611 62.3364 26.563 62.1138 25.9558 62.1138C25.362 62.1138 24.9775 62.3364 24.802 62.7817C24.6266 63.2135 24.5389 64.0434 24.5389 65.2714V65.7572C24.5389 67.0661 24.6334 67.9298 24.8223 68.3481C25.0247 68.7529 25.4228 68.9553 26.0165 68.9553C26.6237 68.9553 27.0151 68.7597 27.1905 68.3683C27.3659 67.977 27.4536 67.1673 27.4536 65.9394V65.2916Z" fill="black"/>
<path d="M44.8021 59.1181L43.6686 71.6879H39.4989L38.4059 66.1215H38.244L37.3331 71.6879H33.1432L31.8275 59.1181H35.1471L35.6733 65.7774H35.8757L36.7259 59.1181H40.1062L41.0373 65.7774H41.2397L41.604 59.1181H44.8021Z" fill="black"/>
<path d="M50.5803 8.14784C50.5569 7.74808 50.3876 7.37081 50.1045 7.08765C49.8213 6.80449 49.444 6.63517 49.0443 6.61182C38.4719 5.99905 29.983 9.21406 26.3349 15.2356C23.9247 19.2166 23.9288 24.0513 26.3022 28.6635C24.9513 30.2717 23.964 32.153 23.4079 34.1784L20.0846 30.8429C21.6819 27.5074 21.6207 24.0309 19.8804 21.1427C17.1842 16.6919 10.9605 14.3062 3.23339 14.7597C2.83363 14.783 2.45636 14.9523 2.1732 15.2355C1.89005 15.5186 1.72072 15.8959 1.69738 16.2957C1.24188 24.0227 3.62965 30.2465 8.08043 32.9427C9.54917 33.84 11.2369 34.315 12.9581 34.3153C14.6287 34.2947 16.2733 33.8989 17.7704 33.1571L22.8768 38.2636V44.1196C22.8768 44.553 23.049 44.9686 23.3554 45.2751C23.6619 45.5815 24.0775 45.7537 24.5109 45.7537C24.9443 45.7537 25.3599 45.5815 25.6664 45.2751C25.9728 44.9686 26.145 44.553 26.145 44.1196V38.0961C26.1377 35.4965 27.0223 32.9731 28.6512 30.9471C30.7529 32.0454 33.0838 32.6332 35.455 32.6628C37.7476 32.6702 39.9975 32.0439 41.9565 30.8531C47.9781 27.2092 51.2012 18.7202 50.5803 8.14784ZM9.76555 30.1484C6.63224 28.2509 4.85928 23.7592 4.90218 17.9747C10.6868 17.9256 15.1784 19.7047 17.0759 22.838C18.0666 24.4721 18.2279 26.3778 17.5784 28.3407L12.5925 23.3548C12.2835 23.0613 11.8722 22.9001 11.4461 22.9055C11.02 22.911 10.6129 23.0827 10.3115 23.384C10.0102 23.6853 9.83851 24.0925 9.83306 24.5186C9.8276 24.9447 9.98881 25.356 10.2823 25.665L15.2682 30.6509C13.3053 31.3004 11.4017 31.1391 9.76555 30.1484ZM40.2632 28.0609C37.5262 29.7174 34.3091 29.8441 31.041 28.4694L42.0076 17.5008C42.3011 17.1919 42.4623 16.7805 42.4569 16.3544C42.4514 15.9283 42.2797 15.5212 41.9784 15.2198C41.6771 14.9185 41.27 14.7468 40.8439 14.7414C40.4178 14.7359 40.0064 14.8971 39.6975 15.1906L28.7288 26.145C27.348 22.8769 27.4726 19.6578 29.1373 16.9227C31.9847 12.2248 38.7374 9.60624 47.3837 9.80845C47.5798 18.4526 44.9653 25.2136 40.2632 28.0609Z" fill="black"/>
</svg>
